<mxfile host="app.diagrams.net" modified="2023-07-29T06:53:10.840Z" agent="Mozilla/5.0 (Macintosh; Intel Mac OS X 10_15_7) AppleWebKit/537.36 (KHTML, like Gecko) Chrome/115.0.0.0 Safari/537.36" etag="Fk_x34IhwRYxtHjv-Zmr" version="21.6.5" type="github">
  <diagram name="Page-1" id="5TNiRGgBlb-OC2oe8q7_">
    <mxGraphModel dx="1841" dy="1030" grid="1" gridSize="10" guides="1" tooltips="1" connect="1" arrows="1" fold="1" page="1" pageScale="1" pageWidth="850" pageHeight="1100" math="0" shadow="0">
      <root>
        <mxCell id="0" />
        <mxCell id="1" parent="0" />
        <mxCell id="bkJ1D_NAtOHvWKbAgeD5-25" value="" style="edgeStyle=orthogonalEdgeStyle;rounded=0;orthogonalLoop=1;jettySize=auto;html=1;" edge="1" parent="1" source="bkJ1D_NAtOHvWKbAgeD5-1" target="bkJ1D_NAtOHvWKbAgeD5-21">
          <mxGeometry relative="1" as="geometry" />
        </mxCell>
        <mxCell id="bkJ1D_NAtOHvWKbAgeD5-1" value="CG0" style="rounded=0;whiteSpace=wrap;html=1;fillColor=#eeeeee;strokeColor=#36393d;" vertex="1" parent="1">
          <mxGeometry x="120" y="120" width="80" height="80" as="geometry" />
        </mxCell>
        <mxCell id="bkJ1D_NAtOHvWKbAgeD5-28" value="" style="edgeStyle=orthogonalEdgeStyle;rounded=0;orthogonalLoop=1;jettySize=auto;html=1;" edge="1" parent="1" source="bkJ1D_NAtOHvWKbAgeD5-2" target="bkJ1D_NAtOHvWKbAgeD5-22">
          <mxGeometry relative="1" as="geometry" />
        </mxCell>
        <mxCell id="bkJ1D_NAtOHvWKbAgeD5-2" value="CG3" style="rounded=0;whiteSpace=wrap;html=1;fillColor=#cce5ff;strokeColor=#36393d;" vertex="1" parent="1">
          <mxGeometry x="120" y="360" width="80" height="80" as="geometry" />
        </mxCell>
        <mxCell id="bkJ1D_NAtOHvWKbAgeD5-26" value="" style="edgeStyle=orthogonalEdgeStyle;rounded=0;orthogonalLoop=1;jettySize=auto;html=1;" edge="1" parent="1" source="bkJ1D_NAtOHvWKbAgeD5-3" target="bkJ1D_NAtOHvWKbAgeD5-23">
          <mxGeometry relative="1" as="geometry" />
        </mxCell>
        <mxCell id="bkJ1D_NAtOHvWKbAgeD5-3" value="CG1" style="rounded=0;whiteSpace=wrap;html=1;fillColor=#ffcccc;strokeColor=#36393d;" vertex="1" parent="1">
          <mxGeometry x="120" y="200" width="80" height="80" as="geometry" />
        </mxCell>
        <mxCell id="bkJ1D_NAtOHvWKbAgeD5-27" value="" style="edgeStyle=orthogonalEdgeStyle;rounded=0;orthogonalLoop=1;jettySize=auto;html=1;" edge="1" parent="1" source="bkJ1D_NAtOHvWKbAgeD5-4" target="bkJ1D_NAtOHvWKbAgeD5-24">
          <mxGeometry relative="1" as="geometry" />
        </mxCell>
        <mxCell id="bkJ1D_NAtOHvWKbAgeD5-4" value="CG2" style="rounded=0;whiteSpace=wrap;html=1;fillColor=#ffff88;strokeColor=#36393d;" vertex="1" parent="1">
          <mxGeometry x="120" y="280" width="80" height="80" as="geometry" />
        </mxCell>
        <mxCell id="bkJ1D_NAtOHvWKbAgeD5-21" value="CG0" style="rounded=0;whiteSpace=wrap;html=1;fillColor=#eeeeee;strokeColor=#36393d;" vertex="1" parent="1">
          <mxGeometry x="240" y="120" width="80" height="80" as="geometry" />
        </mxCell>
        <mxCell id="bkJ1D_NAtOHvWKbAgeD5-22" value="CG3" style="rounded=0;whiteSpace=wrap;html=1;fillColor=#cce5ff;strokeColor=#36393d;" vertex="1" parent="1">
          <mxGeometry x="240" y="360" width="80" height="80" as="geometry" />
        </mxCell>
        <mxCell id="bkJ1D_NAtOHvWKbAgeD5-23" value="CG1" style="rounded=0;whiteSpace=wrap;html=1;fillColor=#ffcccc;strokeColor=#36393d;" vertex="1" parent="1">
          <mxGeometry x="240" y="200" width="80" height="80" as="geometry" />
        </mxCell>
        <mxCell id="bkJ1D_NAtOHvWKbAgeD5-24" value="CG2" style="rounded=0;whiteSpace=wrap;html=1;fillColor=#ffff88;strokeColor=#36393d;" vertex="1" parent="1">
          <mxGeometry x="240" y="280" width="80" height="80" as="geometry" />
        </mxCell>
      </root>
    </mxGraphModel>
  </diagram>
</mxfile>
